<mxfile host="app.diagrams.net" agent="Mozilla/5.0 (Windows NT 10.0; Win64; x64) AppleWebKit/537.36 (KHTML, like Gecko) Chrome/125.0.0.0 Safari/537.36" version="24.7.5">
  <diagram name="Page-1" id="IQnJqDeYZVHRsLvpSiJ3">
    <mxGraphModel dx="1434" dy="780" grid="1" gridSize="10" guides="1" tooltips="1" connect="1" arrows="1" fold="1" page="1" pageScale="1" pageWidth="850" pageHeight="1100" math="0" shadow="0">
      <root>
        <mxCell id="0" />
        <mxCell id="1" parent="0" />
        <mxCell id="Xyj-qc0oV1CKGZ48Yo8w-5" value="Actor" style="shape=umlActor;verticalLabelPosition=bottom;verticalAlign=top;html=1;" vertex="1" parent="1">
          <mxGeometry x="40" y="60" width="30" height="60" as="geometry" />
        </mxCell>
        <mxCell id="Xyj-qc0oV1CKGZ48Yo8w-6" value="PC CLIENTE" style="verticalAlign=top;align=left;spacingTop=8;spacingLeft=2;spacingRight=12;shape=cube;size=10;direction=south;fontStyle=4;html=1;whiteSpace=wrap;" vertex="1" parent="1">
          <mxGeometry x="180" y="20" width="180" height="120" as="geometry" />
        </mxCell>
        <mxCell id="Xyj-qc0oV1CKGZ48Yo8w-8" value="Navegador Web" style="shape=module;align=left;spacingLeft=20;align=center;verticalAlign=top;whiteSpace=wrap;html=1;" vertex="1" parent="1">
          <mxGeometry x="210" y="70" width="100" height="50" as="geometry" />
        </mxCell>
        <mxCell id="Xyj-qc0oV1CKGZ48Yo8w-9" value="SERVIDOR WEB TOMCAT" style="verticalAlign=top;align=left;spacingTop=8;spacingLeft=2;spacingRight=12;shape=cube;size=10;direction=south;fontStyle=4;html=1;whiteSpace=wrap;" vertex="1" parent="1">
          <mxGeometry x="160" y="220" width="340" height="330" as="geometry" />
        </mxCell>
        <mxCell id="Xyj-qc0oV1CKGZ48Yo8w-10" value="Libreria&lt;br&gt;&lt;div&gt;Log4.jar&lt;/div&gt;" style="shape=module;align=left;spacingLeft=20;align=center;verticalAlign=top;whiteSpace=wrap;html=1;" vertex="1" parent="1">
          <mxGeometry x="810" y="65" width="100" height="50" as="geometry" />
        </mxCell>
        <mxCell id="Xyj-qc0oV1CKGZ48Yo8w-11" value="SERVIDOR DE APLICACIONES" style="verticalAlign=top;align=left;spacingTop=8;spacingLeft=2;spacingRight=12;shape=cube;size=10;direction=south;fontStyle=4;html=1;whiteSpace=wrap;" vertex="1" parent="1">
          <mxGeometry x="810" y="210" width="180" height="220" as="geometry" />
        </mxCell>
        <mxCell id="Xyj-qc0oV1CKGZ48Yo8w-12" value="-Log4.jar" style="shape=module;align=left;spacingLeft=20;align=center;verticalAlign=top;whiteSpace=wrap;html=1;" vertex="1" parent="1">
          <mxGeometry x="240" y="470" width="100" height="50" as="geometry" />
        </mxCell>
        <mxCell id="Xyj-qc0oV1CKGZ48Yo8w-16" value="SERVIDOR DE BASE DE DATOS" style="verticalAlign=top;align=left;spacingTop=8;spacingLeft=2;spacingRight=12;shape=cube;size=10;direction=south;fontStyle=4;html=1;whiteSpace=wrap;" vertex="1" parent="1">
          <mxGeometry x="590" y="310" width="180" height="120" as="geometry" />
        </mxCell>
        <mxCell id="Xyj-qc0oV1CKGZ48Yo8w-17" value="mariadb-java-client-3.4.0.jar" style="shape=module;align=left;spacingLeft=20;align=center;verticalAlign=top;whiteSpace=wrap;html=1;" vertex="1" parent="1">
          <mxGeometry x="210" y="280" width="100" height="50" as="geometry" />
        </mxCell>
        <mxCell id="Xyj-qc0oV1CKGZ48Yo8w-19" value="vidasalud.war" style="shape=module;align=left;spacingLeft=20;align=center;verticalAlign=top;whiteSpace=wrap;html=1;" vertex="1" parent="1">
          <mxGeometry x="275" y="360" width="100" height="50" as="geometry" />
        </mxCell>
        <mxCell id="Xyj-qc0oV1CKGZ48Yo8w-20" value="Module" style="shape=module;align=left;spacingLeft=20;align=center;verticalAlign=top;whiteSpace=wrap;html=1;" vertex="1" parent="1">
          <mxGeometry x="630" y="370" width="100" height="50" as="geometry" />
        </mxCell>
      </root>
    </mxGraphModel>
  </diagram>
</mxfile>
